<svg width="56" height="57" fill="none" xmlns="http://www.w3.org/2000/svg"><g clip-path="url(#clip0_2354_537)"><rect x=".027" y=".527" width="55.945" height="55.945" rx="10.91" fill="#2EEFAA" stroke="#2EEFAA" stroke-width=".055"/><mask id="a" style="mask-type:luminance" maskUnits="userSpaceOnUse" x="0" y="0" width="56" height="57"><rect x=".027" y=".527" width="55.945" height="55.945" rx="10.91" fill="#fff" stroke="#fff" stroke-width=".055"/></mask><g mask="url(#a)" fill="#F3F6FF"><path d="M37.592 34.703c-3.401 4.881-10.127 6.07-14.993 2.67a10.779 10.779 0 01-4.3-6.284h-5.232c1.235 7.626 7.916 13.345 15.694 13.345a15.894 15.894 0 0013.025-6.787l.214-.32-4.194-2.929-.214.305zm-19.309-8.739c1.403-5.78 7.245-9.32 13.025-7.916a10.815 10.815 0 016.269 4.286l.229.32L42 19.726l-.229-.32a15.952 15.952 0 00-13.01-6.773c-7.778 0-14.459 5.705-15.694 13.33h5.216z"/></g></g><defs><clipPath id="clip0_2354_537"><path fill="#fff" transform="translate(0 .5)" d="M0 0h56v56H0z"/></clipPath></defs></svg>